# xmcd
#
# Track frame offsets: 
#        150
#        58073
#        97619
#        109236
#        127923
#        150603
#        165719
#        181663
#        215969
#
# Disc length: 3046 seconds
#
# Revision: 0
# Processed by: cddbd v1.5.1PL0 Copyright (c) Steve Scherf et al.
# Submitted via: ExactAudioCopy v0.95b3
#
DISCID=710be409
DTITLE=Jimi Hendrix - Are You Experienced The Sessions ? Vol.1
DYEAR=1967
DGENRE=Rock
TTITLE0=Hey Joe 1-4 (October 23 1966)
TTITLE1=Can You See Me 1-4 (December 13 1966)
TTITLE2=Can You See Me (December 13 1966)
TTITLE3=Red House (December 13 1966)
TTITLE4=51st Anniversary 1-3 (January 11 1967)
TTITLE5=51st Anniversary (January 11 1967)
TTITLE6=Wind Cries Mary (January 15 1967)
TTITLE7=Fire 1-6 (February 1 1967)
TTITLE8=Purple Haze-rejection mono mix (February 3 1967)
EXTD=Shout to the Top STTP 038
EXTT0=
EXTT1=
EXTT2=
EXTT3=
EXTT4=
EXTT5=
EXTT6=
EXTT7=
EXTT8=
PLAYORDER=
